<?xml version="1.0" encoding="UTF-8" standalone="no"?>
<svg
   width="373"
   height="88.007797"
   viewBox="0 0 373 88.007797"
   fill="none"
   version="1.1"
   id="svg1161"
   sodipodi:docname="browsers.svg"
   inkscape:version="1.1.1 (c3084ef, 2021-09-22)"
   xmlns:inkscape="http://www.inkscape.org/namespaces/inkscape"
   xmlns:sodipodi="http://sodipodi.sourceforge.net/DTD/sodipodi-0.dtd"
   xmlns="http://www.w3.org/2000/svg"
   xmlns:svg="http://www.w3.org/2000/svg">
  <sodipodi:namedview
     id="namedview1163"
     pagecolor="#ffffff"
     bordercolor="#666666"
     borderopacity="1.0"
     inkscape:pageshadow="2"
     inkscape:pageopacity="0.0"
     inkscape:pagecheckerboard="0"
     showgrid="false"
     inkscape:zoom="1.2264187"
     inkscape:cx="309.43756"
     inkscape:cy="22.423011"
     inkscape:window-width="1312"
     inkscape:window-height="969"
     inkscape:window-x="0"
     inkscape:window-y="44"
     inkscape:window-maximized="0"
     inkscape:current-layer="svg1161" />
  <path
     d="m 37.5905,81.5834 c 20.3939,0 36.9264,-16.5326 36.9264,-36.9265 C 74.5169,24.263 57.9844,7.73047 37.5905,7.73047 17.1966,7.73047 0.66406244,24.263 0.66406244,44.6569 0.66406244,65.0508 17.1966,81.5834 37.5905,81.5834 Z"
     fill="#ffffff"
     id="path824" />
  <path
     d="m 61.091,51.3709 c 0,-12.9783 -10.5206,-23.4995 -23.4983,-23.4995 -12.9778,0 -23.4989,10.5212 -23.4989,23.4995 h 6.7134 c 0,-9.2705 7.5156,-16.7848 16.7849,-16.7848 9.2699,0 16.7848,7.5143 16.7848,16.7848"
     fill="#000000"
     fill-opacity="0.1"
     id="path826" />
  <path
     d="m 39.2679,62.1125 c 7.045,0 12.7562,-5.7112 12.7562,-12.7562 0,-7.0451 -5.7112,-12.7562 -12.7562,-12.7562 -7.045,0 -12.7562,5.7111 -12.7562,12.7562 0,7.045 5.7112,12.7562 12.7562,12.7562 z"
     fill="#000000"
     fill-opacity="0.1"
     id="path828" />
  <path
     d="m 37.5916,58.4205 c 7.6014,0 13.7635,-6.1621 13.7635,-13.7634 0,-7.6014 -6.1621,-13.7635 -13.7635,-13.7635 -7.6013,0 -13.7635,6.1621 -13.7635,13.7635 0,7.6013 6.1622,13.7634 13.7635,13.7634 z"
     fill="url(#paint0_linear_775_7642)"
     id="path830"
     style="fill:url(#paint0_linear_775_7642)" />
  <path
     d="M 71.1632,27.8717 C 61.9217,9.27746 39.3563,1.69591 20.7614,10.9374 14.9635,13.819 10.008,18.1491 6.3750004,23.5083 L 21.4818,49.692 c -2.7829,-8.8419 2.1315,-18.2662 10.9734,-21.0484 1.5551,-0.4894 3.1733,-0.7493 4.8035,-0.7713"
     fill="url(#paint1_linear_775_7642)"
     id="path832"
     style="fill:url(#paint1_linear_775_7642)" />
  <path
     d="m 6.3718804,23.5082 c -11.5624,17.248 -6.95318096,40.6022 10.2941196,52.1646 5.3365,3.5771 11.5002,5.7277 17.9036,6.2468 L 50.3471,55.0639 c -5.8992,7.1499 -16.4779,8.1639 -23.6284,2.2641 -2.4286,-2.0031 -4.2446,-4.6491 -5.2406,-7.6355"
     fill="url(#paint2_linear_775_7642)"
     id="path834"
     style="fill:url(#paint2_linear_775_7642)" />
  <path
     d="M 34.5664,81.9203 C 55.2722,83.4852 73.3259,67.9686 74.8913,47.2634 75.3965,40.5826 74.107,33.8881 71.1563,27.873 H 37.2524 c 9.2693,0.0424 16.7503,7.5919 16.7068,16.8618 -0.0171,3.7505 -1.2899,7.3872 -3.6153,10.3299"
     fill="url(#paint3_linear_775_7642)"
     id="path836"
     style="fill:url(#paint3_linear_775_7642)" />
  <path
     d="M 6.3750004,23.5088 21.4818,49.6925 C 20.3625,45.9268 20.5997,41.8878 22.1519,38.279 L 7.0457404,22.5015"
     fill="url(#paint4_linear_775_7642)"
     id="path838"
     style="fill:url(#paint4_linear_775_7642)" />
  <path
     d="M 34.5665,81.9201 50.344,55.0645 c -2.4895,2.9684 -5.9291,4.9844 -9.7354,5.7061 l -6.7141,21.1495"
     fill="url(#paint5_linear_775_7642)"
     id="path840"
     style="fill:url(#paint5_linear_775_7642)" />
  <path
     d="M 71.1623,27.8716 H 37.2578 c 2.5211,0.0118 5.0072,0.5913 7.2736,1.6956 2.2664,1.1043 4.255,2.7049 5.818,4.6831 l 21.4848,-5.3714"
     fill="url(#paint6_linear_775_7642)"
     id="path842"
     style="fill:url(#paint6_linear_775_7642)" />
  <path
     d="m 221.285,31.9889 c -1.632,-3.9255 -4.941,-8.1639 -7.532,-9.5036 1.848,3.5797 3.131,7.4241 3.802,11.3964 l 0.007,0.063 C 213.317,23.361 206.118,19.0936 200.239,9.80119 199.935,9.32751 199.64,8.84823 199.354,8.3636 199.207,8.11048 199.069,7.852 198.941,7.58869 198.697,7.11648 198.509,6.6174 198.38,6.10159 c 0.001,-0.02382 -0.008,-0.04686 -0.024,-0.06474 -0.015,-0.01789 -0.037,-0.02936 -0.061,-0.03224 -0.023,-0.00615 -0.047,-0.00615 -0.07,0 -0.005,0 -0.013,0.00879 -0.019,0.01084 -0.006,0.00176 -0.018,0.01055 -0.027,0.01436 l 0.015,-0.0252 c -9.431,5.52219 -12.631,15.74439 -12.926,20.85759 -3.766,0.2589 -7.367,1.6466 -10.332,3.9823 -0.31,-0.262 -0.633,-0.5071 -0.969,-0.7341 -0.856,-2.9945 -0.892,-6.1636 -0.106,-9.177 -3.463,1.6778 -6.54,4.0562 -9.037,6.9847 h -0.018 c -1.488,-1.8862 -1.383,-8.1056 -1.298,-9.4049 -0.44,0.177 -0.86,0.4002 -1.254,0.6656 -1.313,0.9377 -2.541,1.9896 -3.669,3.1436 -1.286,1.3034 -2.46,2.7121 -3.51,4.2114 v 0.0056 -0.0068 c -2.414,3.4223 -4.126,7.2888 -5.038,11.3763 l -0.05,0.2478 c -0.138,0.7791 -0.261,1.5608 -0.369,2.3447 0,0.0281 -0.006,0.0542 -0.009,0.0823 -0.328,1.7082 -0.532,3.4381 -0.609,5.1759 v 0.1939 c 0.025,28.9046 31.331,46.9424 56.351,32.4683 4.761,-2.7547 8.859,-6.522 12.004,-11.0354 3.145,-4.5134 5.26,-9.6627 6.195,-15.0837 0.063,-0.4842 0.114,-0.9638 0.17,-1.4531 0.774,-6.3916 -0.063,-12.8752 -2.435,-18.8607 z m -43.275,29.39 c 0.176,0.0844 0.34,0.1755 0.521,0.2558 l 0.026,0.0167 c -0.184,-0.0881 -0.366,-0.1789 -0.547,-0.2725 z m 39.555,-27.4254 v -0.036 l 0.007,0.0398 z"
     fill="url(#paint7_linear_775_7642)"
     id="path844"
     style="fill:url(#paint7_linear_775_7642)" />
  <path
     d="m 221.285,31.9887 c -1.632,-3.9255 -4.941,-8.1638 -7.532,-9.5036 1.848,3.5797 3.131,7.4241 3.802,11.3965 v 0.0357 l 0.007,0.0399 c 2.894,8.2814 2.475,17.3609 -1.168,25.3409 -4.304,9.2332 -14.72,18.6969 -31.024,18.2367 -17.617,-0.4989 -33.132,-13.5712 -36.032,-30.6932 -0.528,-2.7 0,-4.0687 0.266,-6.263 -0.363,1.7043 -0.565,3.4388 -0.604,5.1808 v 0.194 c 0.025,28.9045 31.331,46.9423 56.351,32.4682 4.761,-2.7547 8.859,-6.522 12.004,-11.0354 3.145,-4.5134 5.26,-9.6627 6.195,-15.0836 0.063,-0.4843 0.114,-0.9639 0.17,-1.4532 0.774,-6.3916 -0.063,-12.8751 -2.435,-18.8607 z"
     fill="url(#paint8_radial_775_7642)"
     id="path846"
     style="fill:url(#paint8_radial_775_7642)" />
  <path
     d="m 221.285,31.9887 c -1.632,-3.9255 -4.941,-8.1638 -7.532,-9.5036 1.848,3.5797 3.131,7.4241 3.802,11.3965 v 0.0357 l 0.007,0.0399 c 2.894,8.2814 2.475,17.3609 -1.168,25.3409 -4.304,9.2332 -14.72,18.6969 -31.024,18.2367 -17.617,-0.4989 -33.132,-13.5712 -36.032,-30.6932 -0.528,-2.7 0,-4.0687 0.266,-6.263 -0.363,1.7043 -0.565,3.4388 -0.604,5.1808 v 0.194 c 0.025,28.9045 31.331,46.9423 56.351,32.4682 4.761,-2.7547 8.859,-6.522 12.004,-11.0354 3.145,-4.5134 5.26,-9.6627 6.195,-15.0836 0.063,-0.4843 0.114,-0.9639 0.17,-1.4532 0.774,-6.3916 -0.063,-12.8751 -2.435,-18.8607 z"
     fill="url(#paint9_radial_775_7642)"
     id="path848"
     style="fill:url(#paint9_radial_775_7642)" />
  <path
     d="m 203.04,36.4026 c 0.082,0.0571 0.157,0.1143 0.234,0.1714 -0.943,-1.6724 -2.117,-3.2035 -3.488,-4.5484 C 188.117,20.3541 196.728,6.71873 198.18,6.02615 l 0.015,-0.02139 c -9.431,5.52214 -12.631,15.74444 -12.925,20.85764 0.438,-0.0302 0.871,-0.0671 1.319,-0.0671 3.346,0.0062 6.631,0.8984 9.521,2.5859 2.89,1.6874 5.281,4.11 6.93,7.0214 z"
     fill="url(#paint10_radial_775_7642)"
     id="path850"
     style="fill:url(#paint10_radial_775_7642)" />
  <path
     d="m 186.613,38.7336 c -0.062,0.934 -3.362,4.1549 -4.516,4.1549 -10.676,0 -12.409,6.4588 -12.409,6.4588 0.472,5.4386 4.262,9.9181 8.843,12.2876 0.21,0.1087 0.422,0.2066 0.634,0.3024 0.363,0.161 0.731,0.3116 1.102,0.4515 1.573,0.5564 3.219,0.8741 4.886,0.9424 18.713,0.8778 22.339,-22.3781 8.834,-29.1266 3.186,-0.4146 6.412,0.3688 9.053,2.1981 -1.65,-2.9113 -4.041,-5.3339 -6.931,-7.0214 -2.889,-1.6875 -6.174,-2.5797 -9.52,-2.5859 -0.446,0 -0.882,0.0369 -1.32,0.0671 -3.766,0.2588 -7.367,1.6466 -10.333,3.9823 0.573,0.4846 1.219,1.1318 2.58,2.4733 2.548,2.5101 9.082,5.1102 9.097,5.4155 z"
     fill="url(#paint11_radial_775_7642)"
     id="path852"
     style="fill:url(#paint11_radial_775_7642)" />
  <path
     d="m 186.613,38.7336 c -0.062,0.934 -3.362,4.1549 -4.516,4.1549 -10.676,0 -12.409,6.4588 -12.409,6.4588 0.472,5.4386 4.262,9.9181 8.843,12.2876 0.21,0.1087 0.422,0.2066 0.634,0.3024 0.363,0.161 0.731,0.3116 1.102,0.4515 1.573,0.5564 3.219,0.8741 4.886,0.9424 18.713,0.8778 22.339,-22.3781 8.834,-29.1266 3.186,-0.4146 6.412,0.3688 9.053,2.1981 -1.65,-2.9113 -4.041,-5.3339 -6.931,-7.0214 -2.889,-1.6875 -6.174,-2.5797 -9.52,-2.5859 -0.446,0 -0.882,0.0369 -1.32,0.0671 -3.766,0.2588 -7.367,1.6466 -10.333,3.9823 0.573,0.4846 1.219,1.1318 2.58,2.4733 2.548,2.5101 9.082,5.1102 9.097,5.4155 z"
     fill="url(#paint12_radial_775_7642)"
     id="path854"
     style="fill:url(#paint12_radial_775_7642)" />
  <path
     d="m 173.185,29.5956 c 0.261,0.1664 0.52,0.338 0.775,0.5145 -0.856,-2.9945 -0.892,-6.1637 -0.106,-9.177 -3.463,1.6778 -6.541,4.0562 -9.038,6.9847 0.184,-0.005 5.63,-0.1029 8.369,1.6778 z"
     fill="url(#paint13_radial_775_7642)"
     id="path856"
     style="fill:url(#paint13_radial_775_7642)" />
  <path
     d="m 149.342,46.8416 c 2.898,17.122 18.416,30.1942 36.032,30.6931 16.305,0.4612 26.721,-9.0035 31.024,-18.2367 3.644,-7.98 4.062,-17.0594 1.168,-25.3409 v -0.0357 c 0,-0.0281 -0.006,-0.0448 0,-0.0361 l 0.007,0.063 c 1.332,8.6965 -3.091,17.122 -10.006,22.8191 l -0.022,0.0486 c -13.473,10.9731 -26.367,6.6205 -28.977,4.8436 -0.184,-0.0877 -0.366,-0.1785 -0.547,-0.2721 -7.855,-3.755 -11.1,-10.9122 -10.405,-17.0502 -1.865,0.0275 -3.697,-0.4863 -5.276,-1.4793 -1.579,-0.993 -2.836,-2.4225 -3.618,-4.1152 2.062,-1.2634 4.413,-1.9775 6.83,-2.0745 2.416,-0.097 4.817,0.4265 6.974,1.5205 4.446,2.0184 9.506,2.2173 14.097,0.554 -0.014,-0.3053 -6.549,-2.9063 -9.097,-5.4153 -1.361,-1.3418 -2.007,-1.9881 -2.579,-2.4732 -0.31,-0.2622 -0.633,-0.5074 -0.969,-0.7345 -0.223,-0.152 -0.474,-0.3167 -0.775,-0.5144 -2.739,-1.7807 -8.185,-1.6828 -8.366,-1.6779 h -0.017 c -1.488,-1.8861 -1.383,-8.1055 -1.298,-9.4046 -0.44,0.1768 -0.86,0.3998 -1.254,0.6654 -1.313,0.9375 -2.541,1.9895 -3.669,3.1435 -1.29,1.2999 -2.469,2.7054 -3.525,4.2018 v 0.0056 -0.0068 c -2.413,3.4223 -4.126,7.2888 -5.037,11.3763 -0.018,0.0764 -1.353,5.9083 -0.695,8.9329 z"
     fill="url(#paint14_radial_775_7642)"
     id="path858"
     style="fill:url(#paint14_radial_775_7642)" />
  <path
     d="m 199.786,32.0255 c 1.371,1.3464 2.545,2.8793 3.488,4.5533 0.195,0.1449 0.382,0.2988 0.563,0.4611 8.512,7.8469 4.052,18.9393 3.72,19.7288 6.915,-5.6973 11.334,-14.1225 10.006,-22.8193 C 213.316,23.361 206.117,19.0936 200.238,9.80119 199.934,9.32751 199.639,8.84823 199.353,8.3636 199.206,8.11048 199.068,7.852 198.94,7.58869 c -0.244,-0.47221 -0.432,-0.97129 -0.56,-1.4871 0,-0.02382 -0.009,-0.04686 -0.025,-0.06474 -0.015,-0.01789 -0.037,-0.02936 -0.061,-0.03224 -0.023,-0.00615 -0.047,-0.00615 -0.07,0 -0.005,0 -0.013,0.00879 -0.019,0.01084 -0.006,0.00176 -0.018,0.01055 -0.027,0.01436 -1.452,0.68877 -10.063,14.32409 1.608,25.99569 z"
     fill="url(#paint15_radial_775_7642)"
     id="path860"
     style="fill:url(#paint15_radial_775_7642)" />
  <path
     d="m 203.832,37.0352 c -0.18,-0.1623 -0.368,-0.3162 -0.563,-0.4611 -0.076,-0.0571 -0.152,-0.1143 -0.233,-0.1714 -2.641,-1.8293 -5.867,-2.6127 -9.053,-2.1981 13.504,6.7523 9.881,30.0044 -8.834,29.1266 -1.667,-0.0683 -3.313,-0.386 -4.886,-0.9425 -0.371,-0.1393 -0.739,-0.2899 -1.102,-0.4514 -0.212,-0.097 -0.424,-0.1937 -0.634,-0.3024 l 0.026,0.0167 c 2.61,1.7816 15.501,6.1342 28.978,-4.8439 l 0.021,-0.0483 c 0.336,-0.7849 4.797,-11.8799 -3.72,-19.7242 z"
     fill="url(#paint16_radial_775_7642)"
     id="path862"
     style="fill:url(#paint16_radial_775_7642)" />
  <path
     d="m 169.687,49.347 c 0,0 1.733,-6.4587 12.41,-6.4587 1.154,0 4.456,-3.2209 4.515,-4.1549 -4.591,1.6633 -9.651,1.4644 -14.097,-0.5543 -2.157,-1.0939 -4.558,-1.6173 -6.974,-1.5202 -2.417,0.097 -4.768,0.8112 -6.83,2.0745 0.783,1.6927 2.039,3.1222 3.618,4.1152 1.579,0.993 3.411,1.5068 5.276,1.4793 -0.695,6.1392 2.55,13.2964 10.406,17.0502 0.175,0.0844 0.34,0.1755 0.52,0.2557 -4.585,-2.3686 -8.371,-6.8481 -8.844,-12.2868 z"
     fill="url(#paint17_radial_775_7642)"
     id="path864"
     style="fill:url(#paint17_radial_775_7642)" />
  <path
     d="m 221.285,31.9889 c -1.632,-3.9255 -4.941,-8.1639 -7.532,-9.5036 1.848,3.5797 3.131,7.4241 3.802,11.3964 l 0.007,0.063 C 213.317,23.361 206.118,19.0936 200.239,9.80119 199.935,9.32751 199.64,8.84823 199.354,8.3636 199.207,8.11048 199.069,7.852 198.941,7.58869 198.697,7.11648 198.509,6.6174 198.38,6.10159 c 0.001,-0.02382 -0.008,-0.04686 -0.024,-0.06474 -0.015,-0.01789 -0.037,-0.02936 -0.061,-0.03224 -0.023,-0.00615 -0.047,-0.00615 -0.07,0 -0.005,0 -0.013,0.00879 -0.019,0.01084 -0.006,0.00176 -0.018,0.01055 -0.027,0.01436 l 0.015,-0.0252 c -9.431,5.52219 -12.631,15.74439 -12.926,20.85759 0.438,-0.0302 0.872,-0.0671 1.32,-0.0671 3.346,0.0062 6.631,0.8984 9.521,2.5859 2.889,1.6875 5.281,4.1101 6.93,7.0214 -2.641,-1.8293 -5.867,-2.6127 -9.053,-2.1981 13.505,6.7523 9.882,30.0044 -8.834,29.1267 -1.666,-0.0684 -3.313,-0.3861 -4.885,-0.9425 -0.372,-0.1394 -0.74,-0.2899 -1.103,-0.4515 -0.212,-0.097 -0.424,-0.1936 -0.633,-0.3023 l 0.026,0.0167 c -0.184,-0.0881 -0.366,-0.1789 -0.547,-0.2725 0.176,0.0844 0.34,0.1755 0.521,0.2558 -4.585,-2.3696 -8.371,-6.8491 -8.844,-12.2877 0,0 1.733,-6.4588 12.41,-6.4588 1.153,0 4.456,-3.2209 4.515,-4.1549 -0.014,-0.3053 -6.549,-2.9062 -9.096,-5.4155 -1.362,-1.3415 -2.008,-1.9878 -2.58,-2.4733 -0.31,-0.262 -0.633,-0.5071 -0.969,-0.7341 -0.856,-2.9945 -0.892,-6.1636 -0.106,-9.177 -3.463,1.6778 -6.54,4.0562 -9.037,6.9847 h -0.018 c -1.488,-1.8862 -1.383,-8.1056 -1.298,-9.4049 -0.44,0.177 -0.86,0.4002 -1.254,0.6656 -1.313,0.9377 -2.541,1.9896 -3.669,3.1436 -1.286,1.3034 -2.46,2.7121 -3.51,4.2114 v 0.0056 -0.0068 c -2.414,3.4223 -4.126,7.2888 -5.038,11.3763 l -0.05,0.2478 c -0.071,0.3305 -0.387,2.0083 -0.433,2.3687 0,-0.0281 0,0.0272 0,0 -0.29,1.732 -0.475,3.4799 -0.554,5.2342 v 0.1939 c 0.025,28.9046 31.331,46.9424 56.351,32.4683 4.761,-2.7547 8.859,-6.522 12.004,-11.0354 3.145,-4.5134 5.26,-9.6627 6.195,-15.0837 0.063,-0.4842 0.114,-0.9638 0.17,-1.4531 0.774,-6.3916 -0.063,-12.8752 -2.435,-18.8607 z"
     fill="url(#paint18_linear_775_7642)"
     id="path866"
     style="fill:url(#paint18_linear_775_7642)" />
  <path
     d="m 373,28.4473 -2.725,-7.3535 1.875,-4.2188 c 0.235,-0.5566 0.118,-1.1719 -0.293,-1.6113 L 366.73,10.0781 C 364.475,7.82227 361.135,7.03125 358.117,8.08594 L 356.682,8.58398 348.83,0.0878906 335.559,0 h -0.088 l -13.36,0.117188 -7.822,8.554692 -1.406,-0.49805 c -3.047,-1.08399 -6.416,-0.29297 -8.672,2.02147 l -5.215,5.2735 c -0.351,0.3515 -0.439,0.8496 -0.264,1.289 l 1.963,4.3945 -2.695,7.3536 1.758,6.6503 7.969,30.2637 c 0.908,3.4863 3.017,6.5332 5.976,8.6426 0,0 9.668,6.8262 19.19,13.0078 0.849,0.5567 1.728,0.9375 2.666,0.9375 0.937,0 1.816,-0.3808 2.666,-0.9375 10.722,-7.0312 19.189,-13.0371 19.189,-13.0371 2.93,-2.1094 5.039,-5.1562 5.947,-8.6426 l 7.91,-30.2636 z"
     fill="#f15a22"
     id="path868" />
  <path
     opacity="0.15"
     d="M 308.107,66.7092 298,29.1506 l 2.959,-7.3535 -2.051,-5.4492 4.893,-4.9805 c 1.611,-1.43552 4.775,-1.93356 6.24,-1.084 l 7.646,4.3946 9.961,2.3144 7.764,-3.2226 0.645,66.709 c -0.118,9.6093 0.498,8.5839 -6.563,4.0429 L 312.062,72.8323 c -1.875,-1.7871 -3.31,-3.8086 -3.955,-6.1231 z"
     fill="url(#paint19_linear_775_7642)"
     id="path870"
     style="fill:url(#paint19_linear_775_7642)" />
  <path
     opacity="0.4"
     d="m 357.236,73.9004 -14.824,10.1367 c -4.131,2.2559 -6.123,4.4825 -6.445,3.3985 -0.264,-0.8496 -0.059,-3.3399 -0.147,-7.2071 l -0.175,-65.2441 c 0.029,-0.6445 0.468,-1.7285 1.23,-1.6113 l 7.559,2.2851 10.898,-1.6992 7.207,-5.30273 c 0.762,-0.58594 1.875,-0.52735 2.578,0.14648 l 6.445,6.15235 c 0.586,0.6152 0.616,1.8164 0.264,2.5781 l -1.787,3.3106 2.959,7.6465 -10.195,37.9101 c -1.582,4.7168 -3.809,5.9473 -5.567,7.5 z"
     fill="url(#paint20_linear_775_7642)"
     id="path872"
     style="fill:url(#paint20_linear_775_7642)" />
  <path
     d="m 337.26,54.1411 c -0.352,-0.1465 -0.733,-0.2637 -0.85,-0.2637 h -0.937 c -0.118,0 -0.499,0.1172 -0.85,0.2637 l -3.809,1.582 c -0.351,0.1465 -0.937,0.4102 -1.289,0.586 l -5.742,2.9883 c -0.352,0.1757 -0.381,0.498 -0.059,0.7324 l 5.069,3.5742 c 0.322,0.2344 0.82,0.6152 1.113,0.8789 l 2.256,1.9336 c 0.293,0.2637 0.762,0.6738 1.055,0.9375 l 2.168,1.9336 c 0.293,0.2637 0.761,0.2637 1.054,0 l 2.227,-1.9336 c 0.293,-0.2637 0.762,-0.6738 1.055,-0.9375 l 2.255,-1.9629 c 0.293,-0.2637 0.791,-0.6445 1.114,-0.8789 l 5.068,-3.6035 c 0.322,-0.2344 0.293,-0.5566 -0.059,-0.7324 l -5.742,-2.9297 c -0.351,-0.1758 -0.937,-0.4395 -1.289,-0.586 z"
     fill="#ffffff"
     id="path874" />
  <path
     d="m 364.742,29.7532 c 0.117,-0.3808 0.117,-0.5273 0.117,-0.5273 0,-0.3809 -0.029,-1.0254 -0.088,-1.4062 L 364.478,26.97 c -0.175,-0.3515 -0.468,-0.9082 -0.703,-1.2304 l -3.31,-4.8926 c -0.205,-0.3223 -0.586,-0.8203 -0.85,-1.1426 l -4.277,-5.3613 c -0.235,-0.293 -0.469,-0.5566 -0.498,-0.5274 h -0.059 c 0,0 -0.322,0.0586 -0.703,0.1172 l -6.533,1.2891 c -0.381,0.0879 -0.996,0.2051 -1.377,0.2637 l -0.117,0.0293 c -0.381,0.0586 -0.996,0.0293 -1.377,-0.0879 l -5.479,-1.7578 c -0.381,-0.1172 -0.996,-0.293 -1.347,-0.3809 0,0 -1.114,-0.2637 -2.022,-0.2344 -0.908,0 -2.021,0.2344 -2.021,0.2344 -0.381,0.0879 -0.996,0.2637 -1.348,0.3809 l -5.479,1.7578 c -0.38,0.1172 -0.996,0.1465 -1.376,0.0879 l -0.118,-0.0293 c -0.381,-0.0586 -0.996,-0.2051 -1.377,-0.2637 l -6.591,-1.2305 c -0.381,-0.0879 -0.704,-0.1172 -0.704,-0.1172 h -0.058 c -0.029,0 -0.264,0.2344 -0.498,0.5274 l -4.278,5.3613 c -0.234,0.293 -0.615,0.8203 -0.849,1.1426 l -3.311,4.8926 c -0.205,0.3222 -0.527,0.8789 -0.703,1.2304 l -0.293,0.8496 c -0.058,0.3809 -0.117,1.0254 -0.088,1.4063 0,0 0,0.1172 0.118,0.5273 0.205,0.7032 0.703,1.3477 0.703,1.3477 0.234,0.293 0.673,0.791 0.937,1.0547 l 9.697,10.3125 c 0.264,0.293 0.352,0.8203 0.206,1.1719 l -2.022,4.7754 c -0.146,0.3515 -0.176,0.9375 -0.029,1.3183 l 0.556,1.4942 c 0.469,1.2597 1.26,2.373 2.315,3.2226 l 1.963,1.582 c 0.293,0.2344 0.82,0.3223 1.172,0.1465 l 6.211,-2.959 c 0.351,-0.1757 0.878,-0.5273 1.171,-0.791 l 4.454,-4.0136 c 0.644,-0.586 0.673,-1.5821 0.087,-2.2266 l -9.345,-6.2988 c -0.323,-0.2051 -0.44,-0.6739 -0.264,-1.0254 l 4.102,-7.7344 c 0.175,-0.3516 0.205,-0.9082 0.058,-1.2598 l -0.498,-1.1425 c -0.146,-0.3516 -0.586,-0.7618 -0.937,-0.9083 l -12.041,-4.5117 c -0.352,-0.1465 -0.352,-0.2929 0.029,-0.3222 l 7.764,-0.7325 c 0.38,-0.0293 0.996,0.0293 1.377,0.1172 l 6.914,1.9336 c 0.38,0.1172 0.615,0.4981 0.556,0.8789 l -2.402,13.1543 c -0.059,0.3809 -0.059,0.9082 0.029,1.2012 0.088,0.293 0.469,0.5566 0.85,0.6445 l 4.805,1.0254 c 0.38,0.0879 0.996,0.0879 1.376,0 l 4.483,-1.0254 c 0.381,-0.0879 0.762,-0.3808 0.849,-0.6445 0.088,-0.2637 0.118,-0.8203 0.03,-1.2012 l -2.373,-13.1543 c -0.059,-0.3808 0.176,-0.791 0.556,-0.8789 l 6.914,-1.9336 c 0.381,-0.1172 0.997,-0.1465 1.377,-0.1172 l 7.764,0.7325 c 0.381,0.0293 0.41,0.1757 0.029,0.3222 l -12.041,4.5703 c -0.351,0.1465 -0.791,0.5274 -0.937,0.9082 l -0.498,1.1426 c -0.147,0.3516 -0.147,0.9375 0.058,1.2598 l 4.131,7.7344 c 0.176,0.3515 0.059,0.791 -0.263,1.0254 l -9.346,6.3281 c -0.615,0.6152 -0.557,1.6406 0.088,2.2265 l 4.453,4.0137 c 0.293,0.2637 0.82,0.6153 1.172,0.7617 l 6.24,2.959 c 0.352,0.1758 0.879,0.0879 1.172,-0.1465 l 1.963,-1.6113 c 1.054,-0.8496 1.845,-1.9629 2.285,-3.2226 l 0.557,-1.4942 c 0.146,-0.3516 0.117,-0.9668 -0.03,-1.3183 l -2.021,-4.7754 c -0.147,-0.3516 -0.059,-0.8789 0.205,-1.1719 l 9.697,-10.3125 c 0.264,-0.293 0.674,-0.7617 0.938,-1.0547 -0.059,-0.0879 0.468,-0.7324 0.644,-1.4356 z"
     fill="#ffffff"
     id="path876" />
  <defs
     id="defs1159">
    <linearGradient
       id="paint0_linear_775_7642"
       x1="37.599499"
       y1="30.871799"
       x2="37.599499"
       y2="58.421799"
       gradientUnits="userSpaceOnUse">
      <stop
         stop-color="#81B4E0"
         id="stop894" />
      <stop
         offset="1"
         stop-color="#0C5A94"
         id="stop896" />
    </linearGradient>
    <linearGradient
       id="paint1_linear_775_7642"
       x1="38.7691"
       y1="7.0588102"
       x2="38.7691"
       y2="37.607201"
       gradientUnits="userSpaceOnUse">
      <stop
         stop-color="#F06B59"
         id="stop899" />
      <stop
         offset="1"
         stop-color="#DF2227"
         id="stop901" />
    </linearGradient>
    <linearGradient
       id="paint2_linear_775_7642"
       x1="9.1486702"
       y1="71.381401"
       x2="24.5902"
       y2="45.869099"
       gradientUnits="userSpaceOnUse">
      <stop
         stop-color="#388B41"
         id="stop904" />
      <stop
         offset="1"
         stop-color="#4CB749"
         id="stop906" />
    </linearGradient>
    <linearGradient
       id="paint3_linear_775_7642"
       x1="60.8736"
       y1="74.095398"
       x2="44.424702"
       y2="34.483601"
       gradientUnits="userSpaceOnUse">
      <stop
         stop-color="#E4B022"
         id="stop909" />
      <stop
         offset="0.3"
         stop-color="#FCD209"
         id="stop911" />
    </linearGradient>
    <linearGradient
       id="paint4_linear_775_7642"
       x1="14.2635"
       y1="48.685799"
       x2="14.2635"
       y2="21.8307"
       gradientUnits="userSpaceOnUse">
      <stop
         stop-opacity="0.15"
         id="stop914" />
      <stop
         offset="0.3"
         stop-opacity="0.06"
         id="stop916" />
      <stop
         offset="1"
         stop-opacity="0.03"
         id="stop918" />
    </linearGradient>
    <linearGradient
       id="paint5_linear_775_7642"
       x1="51.325298"
       y1="57.357601"
       x2="32.8624"
       y2="76.156502"
       gradientUnits="userSpaceOnUse">
      <stop
         stop-opacity="0.15"
         id="stop921" />
      <stop
         offset="0.3"
         stop-opacity="0.06"
         id="stop923" />
      <stop
         offset="1"
         stop-opacity="0.03"
         id="stop925" />
    </linearGradient>
    <linearGradient
       id="paint6_linear_775_7642"
       x1="51.063099"
       y1="62.7682"
       x2="53.7491"
       y2="36.247398"
       gradientUnits="userSpaceOnUse">
      <stop
         stop-opacity="0.15"
         id="stop928" />
      <stop
         offset="0.3"
         stop-opacity="0.06"
         id="stop930" />
      <stop
         offset="1"
         stop-opacity="0.03"
         id="stop932" />
    </linearGradient>
    <linearGradient
       id="paint7_linear_775_7642"
       x1="216.315"
       y1="18.001699"
       x2="153.98599"
       y2="78.137398"
       gradientUnits="userSpaceOnUse">
      <stop
         offset="0.048"
         stop-color="#FFF44F"
         id="stop935" />
      <stop
         offset="0.111"
         stop-color="#FFE847"
         id="stop937" />
      <stop
         offset="0.225"
         stop-color="#FFC830"
         id="stop939" />
      <stop
         offset="0.368"
         stop-color="#FF980E"
         id="stop941" />
      <stop
         offset="0.401"
         stop-color="#FF8B16"
         id="stop943" />
      <stop
         offset="0.462"
         stop-color="#FF672A"
         id="stop945" />
      <stop
         offset="0.534"
         stop-color="#FF3647"
         id="stop947" />
      <stop
         offset="0.705"
         stop-color="#E31587"
         id="stop949" />
    </linearGradient>
    <radialGradient
       id="paint8_radial_775_7642"
       cx="0"
       cy="0"
       r="1"
       gradientUnits="userSpaceOnUse"
       gradientTransform="matrix(78.2728,0,0,78.2728,213.436,14.5985)">
      <stop
         offset="0.129"
         stop-color="#FFBD4F"
         id="stop952" />
      <stop
         offset="0.186"
         stop-color="#FFAC31"
         id="stop954" />
      <stop
         offset="0.247"
         stop-color="#FF9D17"
         id="stop956" />
      <stop
         offset="0.283"
         stop-color="#FF980E"
         id="stop958" />
      <stop
         offset="0.403"
         stop-color="#FF563B"
         id="stop960" />
      <stop
         offset="0.467"
         stop-color="#FF3750"
         id="stop962" />
      <stop
         offset="0.71"
         stop-color="#F5156C"
         id="stop964" />
      <stop
         offset="0.782"
         stop-color="#EB0878"
         id="stop966" />
      <stop
         offset="0.86"
         stop-color="#E50080"
         id="stop968" />
    </radialGradient>
    <radialGradient
       id="paint9_radial_775_7642"
       cx="0"
       cy="0"
       r="1"
       gradientUnits="userSpaceOnUse"
       gradientTransform="matrix(78.2728,0,0,78.2728,184.835,46.5986)">
      <stop
         offset="0.3"
         stop-color="#960E18"
         id="stop971" />
      <stop
         offset="0.351"
         stop-color="#B11927"
         stop-opacity="0.74"
         id="stop973" />
      <stop
         offset="0.435"
         stop-color="#DB293D"
         stop-opacity="0.343"
         id="stop975" />
      <stop
         offset="0.497"
         stop-color="#F5334B"
         stop-opacity="0.094"
         id="stop977" />
      <stop
         offset="0.53"
         stop-color="#FF3750"
         stop-opacity="0"
         id="stop979" />
    </radialGradient>
    <radialGradient
       id="paint10_radial_775_7642"
       cx="0"
       cy="0"
       r="1"
       gradientUnits="userSpaceOnUse"
       gradientTransform="matrix(56.7053,0,0,56.7054,194.273,-3.16435)">
      <stop
         offset="0.132"
         stop-color="#FFF44F"
         id="stop982" />
      <stop
         offset="0.252"
         stop-color="#FFDC3E"
         id="stop984" />
      <stop
         offset="0.506"
         stop-color="#FF9D12"
         id="stop986" />
      <stop
         offset="0.526"
         stop-color="#FF980E"
         id="stop988" />
    </radialGradient>
    <radialGradient
       id="paint11_radial_775_7642"
       cx="0"
       cy="0"
       r="1"
       gradientUnits="userSpaceOnUse"
       gradientTransform="matrix(37.2691,0,0,37.2691,176.178,67.0447)">
      <stop
         offset="0.353"
         stop-color="#3A8EE6"
         id="stop991" />
      <stop
         offset="0.472"
         stop-color="#5C79F0"
         id="stop993" />
      <stop
         offset="0.669"
         stop-color="#9059FF"
         id="stop995" />
      <stop
         offset="1"
         stop-color="#C139E6"
         id="stop997" />
    </radialGradient>
    <radialGradient
       id="paint12_radial_775_7642"
       cx="0"
       cy="0"
       r="1"
       gradientUnits="userSpaceOnUse"
       gradientTransform="matrix(19.206541,-4.6435353,5.4363948,22.485958,189.124,40.1852)">
      <stop
         offset="0.206"
         stop-color="#9059FF"
         stop-opacity="0"
         id="stop1000" />
      <stop
         offset="0.278"
         stop-color="#8C4FF3"
         stop-opacity="0.064"
         id="stop1002" />
      <stop
         offset="0.747"
         stop-color="#7716A8"
         stop-opacity="0.45"
         id="stop1004" />
      <stop
         offset="0.975"
         stop-color="#6E008B"
         stop-opacity="0.6"
         id="stop1006" />
    </radialGradient>
    <radialGradient
       id="paint13_radial_775_7642"
       cx="0"
       cy="0"
       r="1"
       gradientUnits="userSpaceOnUse"
       gradientTransform="matrix(26.8114,0,0,26.8114,183.846,11.3956)">
      <stop
         stop-color="#FFE226"
         id="stop1009" />
      <stop
         offset="0.121"
         stop-color="#FFDB27"
         id="stop1011" />
      <stop
         offset="0.295"
         stop-color="#FFC82A"
         id="stop1013" />
      <stop
         offset="0.502"
         stop-color="#FFA930"
         id="stop1015" />
      <stop
         offset="0.732"
         stop-color="#FF7E37"
         id="stop1017" />
      <stop
         offset="0.792"
         stop-color="#FF7139"
         id="stop1019" />
    </radialGradient>
    <radialGradient
       id="paint14_radial_775_7642"
       cx="0"
       cy="0"
       r="1"
       gradientUnits="userSpaceOnUse"
       gradientTransform="matrix(114.392,0,0,114.392,204.92,-5.60986)">
      <stop
         offset="0.113"
         stop-color="#FFF44F"
         id="stop1022" />
      <stop
         offset="0.456"
         stop-color="#FF980E"
         id="stop1024" />
      <stop
         offset="0.622"
         stop-color="#FF5634"
         id="stop1026" />
      <stop
         offset="0.716"
         stop-color="#FF3647"
         id="stop1028" />
      <stop
         offset="0.904"
         stop-color="#E31587"
         id="stop1030" />
    </radialGradient>
    <radialGradient
       id="paint15_radial_775_7642"
       cx="0"
       cy="0"
       r="1"
       gradientUnits="userSpaceOnUse"
       gradientTransform="matrix(8.7985305,83.377848,-54.720169,5.7744003,195.297,0.748764)">
      <stop
         stop-color="#FFF44F"
         id="stop1033" />
      <stop
         offset="0.06"
         stop-color="#FFE847"
         id="stop1035" />
      <stop
         offset="0.168"
         stop-color="#FFC830"
         id="stop1037" />
      <stop
         offset="0.304"
         stop-color="#FF980E"
         id="stop1039" />
      <stop
         offset="0.356"
         stop-color="#FF8B16"
         id="stop1041" />
      <stop
         offset="0.455"
         stop-color="#FF672A"
         id="stop1043" />
      <stop
         offset="0.57"
         stop-color="#FF3647"
         id="stop1045" />
      <stop
         offset="0.737"
         stop-color="#E31587"
         id="stop1047" />
    </radialGradient>
    <radialGradient
       id="paint16_radial_775_7642"
       cx="0"
       cy="0"
       r="1"
       gradientUnits="userSpaceOnUse"
       gradientTransform="matrix(71.4169,0,0,71.4169,183.215,21.327)">
      <stop
         offset="0.137"
         stop-color="#FFF44F"
         id="stop1050" />
      <stop
         offset="0.48"
         stop-color="#FF980E"
         id="stop1052" />
      <stop
         offset="0.592"
         stop-color="#FF5634"
         id="stop1054" />
      <stop
         offset="0.655"
         stop-color="#FF3647"
         id="stop1056" />
      <stop
         offset="0.904"
         stop-color="#E31587"
         id="stop1058" />
    </radialGradient>
    <radialGradient
       id="paint17_radial_775_7642"
       cx="0"
       cy="0"
       r="1"
       gradientUnits="userSpaceOnUse"
       gradientTransform="matrix(78.1653,0,0,78.1653,202.067,25.507)">
      <stop
         offset="0.094"
         stop-color="#FFF44F"
         id="stop1061" />
      <stop
         offset="0.231"
         stop-color="#FFE141"
         id="stop1063" />
      <stop
         offset="0.509"
         stop-color="#FFAF1E"
         id="stop1065" />
      <stop
         offset="0.626"
         stop-color="#FF980E"
         id="stop1067" />
    </radialGradient>
    <linearGradient
       id="paint18_linear_775_7642"
       x1="215.56599"
       y1="17.68"
       x2="162.53101"
       y2="70.714798"
       gradientUnits="userSpaceOnUse">
      <stop
         offset="0.167"
         stop-color="#FFF44F"
         stop-opacity="0.8"
         id="stop1070" />
      <stop
         offset="0.266"
         stop-color="#FFF44F"
         stop-opacity="0.634"
         id="stop1072" />
      <stop
         offset="0.489"
         stop-color="#FFF44F"
         stop-opacity="0.217"
         id="stop1074" />
      <stop
         offset="0.6"
         stop-color="#FFF44F"
         stop-opacity="0"
         id="stop1076" />
    </linearGradient>
    <linearGradient
       id="paint19_linear_775_7642"
       x1="298"
       y1="3911.28"
       x2="4107.3599"
       y2="3911.28"
       gradientUnits="userSpaceOnUse">
      <stop
         stop-color="white"
         id="stop1079" />
      <stop
         offset="0.1413"
         stop-color="white"
         stop-opacity="0.958"
         id="stop1081" />
      <stop
         offset="1"
         stop-color="white"
         stop-opacity="0.7"
         id="stop1083" />
    </linearGradient>
    <linearGradient
       id="paint20_linear_775_7642"
       x1="334.18799"
       y1="3980.04"
       x2="4071"
       y2="3980.04"
       gradientUnits="userSpaceOnUse">
      <stop
         stop-color="#F1F1F2"
         id="stop1086" />
      <stop
         offset="0.09191"
         stop-color="#E4E5E6"
         id="stop1088" />
      <stop
         offset="0.2357"
         stop-color="#D9DADB"
         id="stop1090" />
      <stop
         offset="0.438"
         stop-color="#D2D4D5"
         id="stop1092" />
      <stop
         offset="1"
         stop-color="#D0D2D3"
         id="stop1094" />
    </linearGradient>
    <linearGradient
       id="paint21_linear_775_7642"
       x1="464.19601"
       y1="58.859798"
       x2="516.42603"
       y2="58.859798"
       gradientUnits="userSpaceOnUse">
      <stop
         stop-color="#0C59A4"
         id="stop1097" />
      <stop
         offset="1"
         stop-color="#114A8B"
         id="stop1099" />
    </linearGradient>
    <radialGradient
       id="paint22_radial_775_7642"
       cx="0"
       cy="0"
       r="1"
       gradientUnits="userSpaceOnUse"
       gradientTransform="matrix(27.9397,0,0,26.5398,493.049,59.2747)">
      <stop
         offset="0.72"
         stop-opacity="0"
         id="stop1102" />
      <stop
         offset="0.95"
         stop-opacity="0.53"
         id="stop1104" />
      <stop
         offset="1"
         id="stop1106" />
    </radialGradient>
    <linearGradient
       id="paint23_linear_775_7642"
       x1="491.75601"
       y1="36.2216"
       x2="459.12799"
       y2="71.761101"
       gradientUnits="userSpaceOnUse">
      <stop
         stop-color="#1B9DE2"
         id="stop1109" />
      <stop
         offset="0.16"
         stop-color="#1595DF"
         id="stop1111" />
      <stop
         offset="0.67"
         stop-color="#0680D7"
         id="stop1113" />
      <stop
         offset="1"
         stop-color="#0078D4"
         id="stop1115" />
    </linearGradient>
    <radialGradient
       id="paint24_radial_775_7642"
       cx="0"
       cy="0"
       r="1"
       gradientUnits="userSpaceOnUse"
       gradientTransform="matrix(6.294564,-41.535548,33.563176,5.0863795,467.686,65.3018)">
      <stop
         offset="0.76"
         stop-opacity="0"
         id="stop1118" />
      <stop
         offset="0.95"
         stop-opacity="0.5"
         id="stop1120" />
      <stop
         offset="1"
         id="stop1122" />
    </radialGradient>
    <radialGradient
       id="paint25_radial_775_7642"
       cx="0"
       cy="0"
       r="1"
       gradientUnits="userSpaceOnUse"
       gradientTransform="matrix(-2.3721864,59.291965,-126.29896,-5.0530401,454.573,20.8842)">
      <stop
         stop-color="#35C1F1"
         id="stop1125" />
      <stop
         offset="0.11"
         stop-color="#34C1ED"
         id="stop1127" />
      <stop
         offset="0.23"
         stop-color="#2FC2DF"
         id="stop1129" />
      <stop
         offset="0.31"
         stop-color="#2BC3D2"
         id="stop1131" />
      <stop
         offset="0.67"
         stop-color="#36C752"
         id="stop1133" />
    </radialGradient>
    <radialGradient
       id="paint26_radial_775_7642"
       cx="0"
       cy="0"
       r="1"
       gradientUnits="userSpaceOnUse"
       gradientTransform="matrix(7.9846624,27.370307,-22.261846,6.4943855,517.328,29.6768)">
      <stop
         stop-color="#66EB6E"
         id="stop1136" />
      <stop
         offset="1"
         stop-color="#66EB6E"
         stop-opacity="0"
         id="stop1138" />
    </radialGradient>
    <linearGradient
       id="paint27_linear_775_7642"
       x1="3720.72"
       y1="130.25101"
       x2="3720.72"
       y2="7398.9199"
       gradientUnits="userSpaceOnUse">
      <stop
         offset="0.3"
         stop-color="#FF1B2D"
         id="stop1141" />
      <stop
         offset="0.4381"
         stop-color="#FA1A2C"
         id="stop1143" />
      <stop
         offset="0.5939"
         stop-color="#ED1528"
         id="stop1145" />
      <stop
         offset="0.7581"
         stop-color="#D60E21"
         id="stop1147" />
      <stop
         offset="0.9272"
         stop-color="#B70519"
         id="stop1149" />
      <stop
         offset="1"
         stop-color="#A70014"
         id="stop1151" />
    </linearGradient>
    <linearGradient
       id="paint28_linear_775_7642"
       x1="3112.3799"
       y1="68.5298"
       x2="3112.3799"
       y2="6497.2798"
       gradientUnits="userSpaceOnUse">
      <stop
         stop-color="#9C0000"
         id="stop1154" />
      <stop
         offset="0.7"
         stop-color="#FF4B4B"
         id="stop1156" />
    </linearGradient>
  </defs>
</svg>
